<svg xmlns="http://www.w3.org/2000/svg" xmlns:xlink="http://www.w3.org/1999/xlink" width="2000" zoomAndPan="magnify" viewBox="0 0 1500 1499.999933" height="2000" preserveAspectRatio="xMidYMid meet" version="1.0">
  <defs>
    <g/>
    <clipPath id="503d2dc370">
      <path d="M 0 14.367188 L 1500 14.367188 L 1500 1485.632812 L 0 1485.632812 Z M 0 14.367188 " clip-rule="nonzero"/>
    </clipPath>
    <clipPath id="ae0d7fb374">
      <path d="M 75 14.367188 L 1425 14.367188 C 1444.890625 14.367188 1463.96875 22.269531 1478.03125 36.332031 C 1492.097656 50.398438 1500 69.476562 1500 89.367188 L 1500 1410.632812 C 1500 1430.523438 1492.097656 1449.601562 1478.03125 1463.667969 C 1463.96875 1477.730469 1444.890625 1485.632812 1425 1485.632812 L 75 1485.632812 C 55.109375 1485.632812 36.03125 1477.730469 21.96875 1463.667969 C 7.902344 1449.601562 0 1430.523438 0 1410.632812 L 0 89.367188 C 0 69.476562 7.902344 50.398438 21.96875 36.332031 C 36.03125 22.269531 55.109375 14.367188 75 14.367188 Z M 75 14.367188 " clip-rule="nonzero"/>
    </clipPath>
    <clipPath id="9f0dc9d394">
      <path d="M 0 0.367188 L 1500 0.367188 L 1500 1471.632812 L 0 1471.632812 Z M 0 0.367188 " clip-rule="nonzero"/>
    </clipPath>
    <clipPath id="27f820cc6e">
      <path d="M 75 0.367188 L 1425 0.367188 C 1444.890625 0.367188 1463.96875 8.269531 1478.03125 22.332031 C 1492.097656 36.398438 1500 55.476562 1500 75.367188 L 1500 1396.632812 C 1500 1416.523438 1492.097656 1435.601562 1478.03125 1449.667969 C 1463.96875 1463.730469 1444.890625 1471.632812 1425 1471.632812 L 75 1471.632812 C 55.109375 1471.632812 36.03125 1463.730469 21.96875 1449.667969 C 7.902344 1435.601562 0 1416.523438 0 1396.632812 L 0 75.367188 C 0 55.476562 7.902344 36.398438 21.96875 22.332031 C 36.03125 8.269531 55.109375 0.367188 75 0.367188 Z M 75 0.367188 " clip-rule="nonzero"/>
    </clipPath>
    <clipPath id="7d20bc6d0a">
      <rect x="0" width="1500" y="0" height="1472"/>
    </clipPath>
    <clipPath id="635b3860de">
      <path d="M 479 189.328125 L 1003 189.328125 L 1003 902 L 479 902 Z M 479 189.328125 " clip-rule="nonzero"/>
    </clipPath>
    <clipPath id="b80c26dd65">
      <rect x="0" width="976" y="0" height="560"/>
    </clipPath>
    <clipPath id="20b1a7b6cb">
      <path d="M 496 184.828125 L 1019 184.828125 L 1019 898 L 496 898 Z M 496 184.828125 " clip-rule="nonzero"/>
    </clipPath>
  </defs>
  <rect x="-150" width="1800" fill="#ffffff" y="-149.999993" height="1799.99992" fill-opacity="1"/>
  <rect x="-150" width="1800" fill="#fffefa" y="-149.999993" height="1799.99992" fill-opacity="1"/>
  <g clip-path="url(#503d2dc370)">
    <g clip-path="url(#ae0d7fb374)">
      <g transform="matrix(1, 0, 0, 1, 0, 14)">
        <g clip-path="url(#7d20bc6d0a)">
          <g clip-path="url(#9f0dc9d394)">
            <g clip-path="url(#27f820cc6e)">
              <path fill="#1e1e1e" d="M 0 0.367188 L 1500.003906 0.367188 L 1500.003906 1471.632812 L 0 1471.632812 Z M 0 0.367188 " fill-opacity="1" fill-rule="nonzero"/>
            </g>
          </g>
        </g>
      </g>
    </g>
  </g>
  <g clip-path="url(#635b3860de)">
    <path fill="#fffefa" d="M 650.921875 189.328125 C 655.738281 189.328125 660.527344 189.328125 665.34375 189.328125 C 667.851562 191.578125 671.015625 190.953125 673.949219 191.550781 C 682.785156 193.289062 692.074219 192.347656 700.59375 195.484375 C 714.328125 200.554688 728.265625 205.03125 742.570312 208.023438 C 800.019531 220.046875 837.039062 254.074219 854.050781 310.183594 C 861.859375 336.003906 870.039062 361.707031 880.183594 386.757812 C 894.433594 421.980469 910.960938 455.976562 932.476562 487.4375 C 956.070312 521.917969 976.21875 558.507812 997.164062 594.613281 C 1003.375 605.300781 1001.722656 615.988281 1002.121094 626.84375 C 1002.4375 635.621094 996.878906 643.03125 997.335938 652.605469 C 997.761719 661.839844 994.542969 671.925781 992.632812 681.558594 C 990.238281 693.785156 988.246094 706.125 986.136719 718.378906 C 983.855469 731.574219 981.578125 744.851562 979.867188 758.1875 C 978.554688 768.417969 975.648438 778.25 972.65625 788.140625 C 969.324219 799.140625 966.300781 810.453125 961.058594 820.457031 C 952.539062 836.640625 942.164062 851.917969 930.792969 866.308594 C 925.863281 872.546875 919.253906 877.535156 911.929688 881.296875 C 903.808594 885.484375 894.917969 887.308594 886.425781 890.359375 C 872.261719 895.429688 857.785156 899.023438 842.996094 901.5 C 839.746094 902.042969 836.382812 902.554688 832.992188 900.105469 C 841.085938 895.117188 848.550781 890.300781 854.707031 883.777344 C 861.433594 876.625 865.078125 868.671875 863.054688 858.355469 C 860.976562 847.8125 859.808594 837.097656 858.496094 826.410156 C 854.449219 793.441406 846.925781 761.324219 833.476562 730.886719 C 814.011719 686.71875 789.277344 645.253906 766.878906 602.59375 C 755.394531 580.679688 744.25 558.421875 728.550781 539.300781 C 711.507812 518.554688 693.839844 498.292969 675.828125 478.375 C 660.839844 461.789062 642.261719 449.707031 619.777344 445.117188 C 595.238281 440.101562 570.503906 436.882812 545.511719 438.878906 C 521.375 440.785156 499.347656 447.855469 484.441406 468.96875 C 483.558594 470.222656 482.761719 472.046875 479.910156 471.222656 C 483.046875 466.664062 479.710938 461.675781 481.050781 457.03125 C 483.386719 448.992188 483.53125 440.585938 484.585938 432.464844 C 486.265625 419.472656 486.265625 406.21875 488.859375 393.308594 C 492.308594 376.097656 491.738281 358.316406 496.554688 341.273438 C 499.488281 330.875 500.429688 319.957031 503.792969 309.644531 C 505.671875 303.886719 506.699219 297.472656 509.949219 292.601562 C 519.496094 278.265625 527.730469 262.964844 540.296875 250.765625 C 550.1875 241.136719 558.59375 229.878906 571.730469 223.953125 C 574.410156 222.726562 576.886719 220.445312 578.738281 218.109375 C 589.625 204.515625 604.53125 199.671875 621.058594 198.132812 C 623.167969 197.933594 625.21875 197.933594 627.300781 196.9375 C 633.425781 194.03125 639.097656 189.441406 646.707031 191.4375 C 648.332031 191.890625 649.925781 190.894531 650.921875 189.328125 Z M 756.5625 448.824219 C 754.453125 450.589844 751.660156 452.585938 749.382812 455.0625 C 748.640625 455.863281 750.664062 457.65625 751.460938 456.945312 C 754.199219 454.578125 758.472656 454.066406 759.953125 450.417969 C 760.4375 449.277344 758.644531 448.792969 756.5625 448.824219 Z M 796.800781 396.445312 C 799.335938 396.300781 802.214844 395.875 802.101562 392.882812 C 801.957031 389.320312 798.082031 388.863281 795.71875 388.664062 C 792.554688 388.4375 793.011719 392.113281 792.753906 394.136719 C 792.328125 397.214844 795.203125 396.074219 796.800781 396.445312 Z M 884.117188 693.042969 C 882.777344 689.253906 881.011719 686.605469 877.503906 685.691406 C 876.308594 685.378906 875.792969 686.832031 876.078125 687.601562 C 877.21875 690.820312 878.785156 693.699219 884.117188 693.042969 Z M 823.617188 559.390625 C 823.417969 557.570312 822.417969 556.171875 820.652344 556.058594 C 819.027344 555.945312 818.316406 557.425781 818.257812 558.878906 C 818.203125 560.703125 818.859375 562.097656 821.050781 562.042969 C 822.761719 562.015625 823.589844 561.101562 823.617188 559.390625 Z M 738.210938 525.253906 C 736.757812 525.308594 735.988281 526.078125 736.1875 527.476562 C 736.414062 528.929688 737.128906 530.238281 738.835938 530.210938 C 740.121094 530.210938 741.117188 529.355469 740.945312 527.988281 C 740.773438 526.507812 739.835938 525.480469 738.210938 525.253906 Z M 829.289062 310.183594 C 829.34375 308.332031 828.488281 307.675781 827.09375 307.761719 C 825.8125 307.820312 824.640625 308.445312 824.472656 309.726562 C 824.273438 311.265625 825.640625 311.582031 826.835938 311.695312 C 828.175781 311.808594 829.171875 311.351562 829.289062 310.183594 Z M 728.4375 477.605469 C 727.066406 477.664062 726.070312 478.148438 726.328125 479.714844 C 726.496094 480.769531 727.324219 481.308594 728.378906 481.308594 C 729.71875 481.308594 730.773438 480.484375 730.914062 479.316406 C 731.113281 477.664062 729.546875 477.777344 728.4375 477.605469 Z M 728.4375 477.605469 " fill-opacity="1" fill-rule="nonzero"/>
  </g>
  <path fill="#fffefa" d="M 475.125 563.953125 C 478.601562 548.761719 476.605469 533.347656 476.917969 518.042969 C 476.976562 515.050781 477.289062 512 479.027344 509.207031 C 485.125 499.433594 491.140625 489.632812 497.835938 480.226562 C 508.066406 465.863281 522.515625 459.738281 539.328125 457.257812 C 566.914062 453.15625 593.902344 457.402344 620.488281 463.527344 C 641.035156 468.285156 656.90625 481.738281 669.988281 497.808594 C 682.128906 512.714844 694.523438 527.304688 707.632812 541.382812 C 721.796875 556.597656 732.339844 574.523438 741.628906 592.933594 C 763.660156 636.648438 789.136719 678.480469 810.25 722.679688 C 826.894531 757.503906 836.925781 793.808594 841.339844 831.910156 C 842.253906 839.746094 843.707031 847.527344 845.160156 855.277344 C 846.671875 863.484375 845.046875 870.011719 838.007812 875.539062 C 825.46875 885.371094 811.078125 891.101562 796.375 896.316406 C 794.234375 897.085938 791.558594 896.941406 789.277344 896.457031 C 769.042969 892.152344 748.496094 889.960938 728.09375 886.882812 C 720.371094 885.714844 713.273438 881.839844 705.382812 881.921875 C 688.910156 882.066406 672.722656 879.644531 656.652344 876.480469 C 650.46875 875.253906 644.253906 873.375 638.46875 870.839844 C 627.925781 866.191406 616.613281 863.886719 606.125 858.898438 C 598.230469 855.136719 591.621094 849.523438 583.042969 845.445312 C 588.429688 842.597656 593.300781 840.175781 598.03125 837.496094 C 608.976562 831.3125 619.320312 824.417969 626.558594 813.757812 C 627.839844 811.878906 628.980469 809.96875 631.429688 812.589844 C 632.828125 814.070312 634.707031 815.238281 635.90625 812.417969 C 636.730469 810.480469 636.417969 808.171875 633.96875 807.945312 C 630.09375 807.574219 631.03125 806.148438 632.371094 803.871094 C 644.226562 783.835938 647.304688 761.636719 647.902344 738.925781 C 648.1875 728.378906 649.441406 717.664062 647.304688 707.292969 C 638.15625 663.179688 611.597656 633.285156 571.585938 613.707031 C 551.125 603.707031 530.265625 602.566406 508.550781 605.757812 C 499.546875 607.097656 492.023438 611.769531 484.640625 617.726562 C 479.96875 604.074219 478.257812 590.3125 475.210938 576.890625 C 475.125 572.613281 475.125 568.285156 475.125 563.953125 Z M 579.195312 603.363281 C 576.601562 603.789062 576.03125 605.644531 576.117188 607.582031 C 576.261719 610.117188 577.542969 612.199219 580.191406 612.683594 C 582.53125 613.136719 583.242188 611.429688 582.730469 609.605469 C 582.074219 607.296875 582.214844 604.304688 579.195312 603.363281 Z M 559.875 565.347656 C 558.734375 563.496094 557.480469 561.5 554.773438 561.359375 C 553.546875 561.300781 552.976562 562.183594 553.40625 563.210938 C 554.289062 565.375 555.171875 567.714844 558.078125 567.855469 C 559.675781 567.941406 560.015625 566.914062 559.875 565.347656 Z M 672.324219 655.828125 C 673.550781 655.511719 674.121094 654.402344 673.835938 652.804688 C 673.664062 651.894531 673.40625 650.925781 672.210938 650.953125 C 670.445312 650.980469 669.84375 652.152344 669.816406 653.691406 C 669.84375 655 670.300781 655.996094 672.324219 655.828125 Z M 672.324219 655.828125 " fill-opacity="1" fill-rule="nonzero"/>
  <path fill="#fffefa" d="M 630.832031 727.410156 C 630.007812 751.664062 628.839844 775.773438 616.042969 797.570312 C 604.757812 816.808594 586.460938 825.871094 566.285156 831.539062 C 559.132812 833.535156 555.117188 825.527344 551.78125 820.882812 C 541.464844 806.433594 531.378906 791.785156 521.660156 776.941406 C 514.992188 766.792969 508.695312 756.136719 503.164062 745.335938 C 499.375 737.925781 497.695312 728.980469 496.753906 720.171875 C 495.839844 711.710938 494.585938 703.019531 494.417969 694.753906 C 494.1875 682.84375 488.859375 671.84375 490.171875 659.902344 C 490.542969 656.652344 490.484375 652.835938 489.058594 650.070312 C 485.925781 643.945312 488.546875 639.898438 492.195312 635.394531 C 498.976562 627.015625 507.894531 622.742188 518.269531 621.859375 C 534.253906 620.492188 549.359375 622.796875 564.347656 629.808594 C 589.625 641.605469 607.921875 659.730469 621.171875 683.839844 C 628.78125 697.460938 631.203125 712.050781 630.832031 727.410156 Z M 621.714844 777.511719 C 621.65625 775.886719 620.886719 774.832031 619.632812 775.085938 C 617.554688 775.515625 615.585938 776.597656 615.445312 779.019531 C 615.359375 780.785156 616.839844 781.386719 618.351562 781.101562 C 620.316406 780.703125 621.484375 779.332031 621.714844 777.511719 Z M 513.226562 731.171875 C 512.140625 729.292969 511.601562 726.84375 508.835938 727.382812 C 508.292969 727.496094 507.410156 728.4375 507.496094 728.75 C 508.351562 731.515625 510.746094 731.402344 513.226562 731.171875 Z M 513.226562 731.171875 " fill-opacity="1" fill-rule="nonzero"/>
  <path fill="#fffefa" d="M 883.0625 253.988281 C 895.285156 255.984375 903.125 264.929688 911.703125 272.511719 C 921.21875 280.917969 928.230469 291.804688 937.519531 300.265625 C 951.027344 312.605469 962 326.996094 972.828125 341.417969 C 984 356.351562 993.714844 372.480469 997.992188 391.03125 C 999.871094 399.179688 1004.460938 406.277344 1005.855469 414.539062 C 1007.652344 425.171875 1009.816406 435.828125 1011.613281 446.34375 C 1012.953125 454.238281 1012.554688 463.441406 1011.925781 472.164062 C 1011.214844 481.824219 1010.699219 491.796875 1011.015625 501.628906 C 1011.070312 503.082031 1011.269531 504.792969 1009.617188 505.304688 C 1007.90625 505.816406 1007.367188 503.992188 1006.597656 502.910156 C 998.359375 491.054688 990.953125 478.660156 985.339844 465.410156 C 955.699219 395.304688 919.652344 328.335938 884.828125 260.796875 C 883.832031 258.890625 882.976562 256.894531 882.0625 254.957031 C 882.40625 254.613281 882.75 254.300781 883.0625 253.988281 Z M 883.0625 253.988281 " fill-opacity="1" fill-rule="nonzero"/>
  <path fill="#fffefa" d="M 800.363281 207.964844 C 809.027344 212.097656 816.464844 218.480469 825.410156 222.128906 C 833.960938 225.632812 840.886719 232.273438 849.75 235.152344 C 853.539062 236.375 854.335938 239.851562 855.761719 242.703125 C 893.664062 317.28125 934.585938 390.402344 967.070312 467.660156 C 976.53125 490.144531 989.8125 510.40625 1004.230469 529.953125 C 1007.421875 534.285156 1009.160156 538.019531 1005.800781 543.433594 C 1002.179688 549.277344 1005.542969 555.972656 1005.285156 562.300781 C 1005.230469 564.152344 1005.742188 566.628906 1003.71875 567.484375 C 1001.011719 568.625 1000.785156 565.605469 1000.015625 564.207031 C 978.242188 524.9375 952.738281 487.949219 929.570312 449.5625 C 915.605469 426.394531 905.433594 401.316406 895.285156 376.125 C 884.003906 348.058594 876.050781 318.988281 865.679688 290.71875 C 854.222656 259.515625 834.929688 234.550781 807.515625 215.828125 C 804.664062 213.890625 801.84375 211.898438 798.996094 209.929688 C 799.449219 209.246094 799.90625 208.621094 800.363281 207.964844 Z M 800.363281 207.964844 " fill-opacity="1" fill-rule="nonzero"/>
  <path fill="#fffefa" d="M 882.09375 254.929688 C 882.007812 254.386719 881.894531 253.84375 881.808594 253.332031 C 882.234375 253.558594 882.664062 253.789062 883.0625 254.015625 C 882.75 254.300781 882.40625 254.613281 882.09375 254.929688 Z M 882.09375 254.929688 " fill-opacity="1" fill-rule="nonzero"/>
  <g transform="matrix(1, 0, 0, 1, 261, 803)">
    <g clip-path="url(#b80c26dd65)">
      <g fill="#ffffff" fill-opacity="1">
        <g transform="translate(2.780429, 387.721458)">
          <g>
            <path d="M 173.554688 7.136719 L 122.554688 7.136719 C 93.554688 7.136719 73.210938 0.714844 61.519531 -12.132812 C 50.003906 -24.785156 44.246094 -43.195312 44.246094 -67.367188 L 44.246094 -176.980469 L 51.382812 -176.980469 L 51.382812 -169.84375 L 3.519531 -169.84375 L 3.519531 -218.75 L 51.382812 -218.75 L 51.382812 -211.613281 L 44.246094 -211.613281 L 44.246094 -289.542969 L 96.578125 -289.542969 L 96.578125 -211.613281 L 89.441406 -211.613281 L 89.441406 -218.75 L 180.308594 -218.75 L 180.308594 -169.84375 L 89.441406 -169.84375 L 89.441406 -176.980469 L 96.578125 -176.980469 L 96.578125 -79.546875 C 96.578125 -65.121094 99.722656 -55.449219 106.015625 -50.535156 C 112.84375 -45.199219 123.558594 -42.53125 138.160156 -42.53125 L 180.691406 -42.53125 L 180.691406 7.136719 Z M 173.554688 -7.136719 L 173.554688 0 L 166.417969 0 L 166.417969 -35.394531 L 173.554688 -35.394531 L 173.554688 -28.257812 L 138.160156 -28.257812 C 120.28125 -28.257812 106.636719 -31.933594 97.226562 -39.289062 C 87.277344 -47.058594 82.304688 -60.480469 82.304688 -79.546875 L 82.304688 -184.117188 L 173.171875 -184.117188 L 173.171875 -176.980469 L 166.039062 -176.980469 L 166.039062 -211.613281 L 173.171875 -211.613281 L 173.171875 -204.476562 L 82.304688 -204.476562 L 82.304688 -282.40625 L 89.441406 -282.40625 L 89.441406 -275.269531 L 51.382812 -275.269531 L 51.382812 -282.40625 L 58.515625 -282.40625 L 58.515625 -204.476562 L 10.65625 -204.476562 L 10.65625 -211.613281 L 17.792969 -211.613281 L 17.792969 -176.980469 L 10.65625 -176.980469 L 10.65625 -184.117188 L 58.515625 -184.117188 L 58.515625 -67.367188 C 58.515625 -46.878906 63.035156 -31.667969 72.074219 -21.738281 C 80.933594 -12.003906 97.761719 -7.136719 122.554688 -7.136719 Z M 173.554688 -7.136719 "/>
          </g>
        </g>
      </g>
      <g fill="#ffffff" fill-opacity="1">
        <g transform="translate(192.700055, 387.721458)">
          <g>
            <path d="M 234.355469 -102.761719 L 234.355469 -87.253906 L 56.328125 -87.253906 L 56.328125 -94.390625 L 63.386719 -95.453125 C 65.945312 -78.476562 72.949219 -64.265625 84.402344 -52.8125 C 95.566406 -41.644531 110.949219 -36.0625 130.546875 -36.0625 C 144.585938 -36.0625 156.949219 -38.234375 167.632812 -42.578125 C 178.570312 -47.027344 187.714844 -52.09375 195.066406 -57.785156 L 201.695312 -62.917969 L 225.132812 -19.855469 L 219.863281 -16.207031 C 209.496094 -9.03125 196.945312 -2.613281 182.203125 3.046875 C 167.167969 8.816406 149.441406 11.703125 129.023438 11.703125 C 104.691406 11.703125 83.609375 6.707031 65.78125 -3.289062 C 47.839844 -13.347656 33.972656 -27.351562 24.183594 -45.300781 C 14.46875 -63.109375 9.609375 -83.660156 9.609375 -106.949219 L 9.609375 -107.328125 C 9.609375 -130.035156 14.117188 -150.269531 23.132812 -168.03125 C 32.242188 -185.976562 45.234375 -200.121094 62.113281 -210.46875 C 78.992188 -220.808594 98.882812 -225.980469 121.792969 -225.980469 C 145.472656 -225.980469 165.6875 -220.804688 182.441406 -210.453125 C 199.230469 -200.082031 212.113281 -185.578125 221.089844 -166.945312 C 229.933594 -148.585938 234.355469 -127.191406 234.355469 -102.761719 Z M 220.082031 -102.761719 C 220.082031 -125.019531 216.132812 -144.347656 208.230469 -160.75 C 200.460938 -176.878906 189.363281 -189.402344 174.941406 -198.3125 C 160.484375 -207.242188 142.769531 -211.710938 121.792969 -211.710938 C 101.566406 -211.710938 84.160156 -207.238281 69.574219 -198.296875 C 54.988281 -189.359375 43.75 -177.117188 35.859375 -161.570312 C 27.875 -145.839844 23.882812 -127.757812 23.882812 -107.328125 L 23.882812 -106.949219 C 23.882812 -86.085938 28.160156 -67.816406 36.714844 -52.132812 C 45.191406 -36.589844 57.207031 -24.457031 72.757812 -15.738281 C 88.421875 -6.960938 107.175781 -2.570312 129.023438 -2.570312 C 147.679688 -2.570312 163.699219 -5.136719 177.085938 -10.277344 C 190.761719 -15.527344 202.3125 -21.417969 211.738281 -27.941406 L 215.800781 -22.074219 L 209.53125 -18.664062 L 193.167969 -48.730469 L 199.433594 -52.140625 L 203.804688 -46.5 C 195.421875 -40.011719 185.15625 -34.296875 173.007812 -29.355469 C 160.601562 -24.3125 146.445312 -21.789062 130.546875 -21.789062 C 107.007812 -21.789062 88.261719 -28.765625 74.308594 -42.71875 C 60.640625 -56.386719 52.296875 -73.253906 49.273438 -93.324219 L 48.035156 -101.523438 L 227.21875 -101.523438 L 227.21875 -94.390625 L 220.082031 -94.390625 Z M 121.410156 -178.214844 C 105.605469 -178.214844 92.816406 -173.386719 83.039062 -163.722656 C 72.9375 -153.734375 66.5 -141.230469 63.726562 -126.207031 L 56.710938 -127.5 L 56.710938 -134.636719 L 187.253906 -134.636719 L 187.253906 -127.5 L 180.191406 -126.492188 C 178.125 -140.953125 172.171875 -153.273438 162.332031 -163.457031 C 152.824219 -173.296875 139.183594 -178.214844 121.410156 -178.214844 Z M 121.410156 -192.488281 C 143.222656 -192.488281 160.28125 -186.117188 172.597656 -173.375 C 184.578125 -160.976562 191.820312 -146.019531 194.320312 -128.511719 L 195.484375 -120.363281 L 48.136719 -120.363281 L 49.691406 -128.796875 C 53.007812 -146.757812 60.777344 -161.785156 73.007812 -173.871094 C 85.558594 -186.28125 101.695312 -192.488281 121.410156 -192.488281 Z M 121.410156 -192.488281 "/>
          </g>
        </g>
      </g>
      <g fill="#ffffff" fill-opacity="1">
        <g transform="translate(437.045598, 387.721458)">
          <g>
            <path d="M 60.894531 7.136719 L 16.082031 7.136719 L 16.082031 -208.738281 L 21.394531 -210.140625 C 35.253906 -213.800781 49.5 -216.21875 64.128906 -217.394531 C 78.53125 -218.550781 90.390625 -219.132812 99.71875 -219.132812 L 146.054688 -219.132812 L 146.054688 -169.84375 L 106.949219 -169.84375 C 102.320312 -169.84375 96.996094 -169.597656 90.972656 -169.105469 C 84.898438 -168.609375 79.269531 -167.992188 74.085938 -167.25 C 69.246094 -166.558594 65.660156 -165.789062 63.335938 -164.945312 L 60.894531 -171.652344 L 68.03125 -171.652344 L 68.03125 7.136719 Z M 60.894531 -7.136719 L 60.894531 0 L 53.761719 0 L 53.761719 -176.648438 L 58.457031 -178.359375 C 61.710938 -179.542969 66.25 -180.550781 72.066406 -181.378906 C 77.535156 -182.160156 83.453125 -182.8125 89.8125 -183.332031 C 96.222656 -183.855469 101.933594 -184.117188 106.949219 -184.117188 L 138.917969 -184.117188 L 138.917969 -176.980469 L 131.78125 -176.980469 L 131.78125 -211.996094 L 138.917969 -211.996094 L 138.917969 -204.859375 L 99.71875 -204.859375 C 90.773438 -204.859375 79.292969 -204.296875 65.273438 -203.167969 C 51.488281 -202.0625 38.078125 -199.785156 25.039062 -196.339844 L 23.214844 -203.242188 L 30.351562 -203.242188 L 30.351562 0 L 23.214844 0 L 23.214844 -7.136719 Z M 60.894531 -7.136719 "/>
          </g>
        </g>
      </g>
      <g fill="#ffffff" fill-opacity="1">
        <g transform="translate(590.427596, 387.721458)">
          <g>
            <path d="M 60.894531 7.136719 L 16.082031 7.136719 L 16.082031 -208.738281 L 21.394531 -210.140625 C 35.253906 -213.800781 49.5 -216.21875 64.128906 -217.394531 C 78.53125 -218.550781 90.390625 -219.132812 99.71875 -219.132812 L 146.054688 -219.132812 L 146.054688 -169.84375 L 106.949219 -169.84375 C 102.320312 -169.84375 96.996094 -169.597656 90.972656 -169.105469 C 84.898438 -168.609375 79.269531 -167.992188 74.085938 -167.25 C 69.246094 -166.558594 65.660156 -165.789062 63.335938 -164.945312 L 60.894531 -171.652344 L 68.03125 -171.652344 L 68.03125 7.136719 Z M 60.894531 -7.136719 L 60.894531 0 L 53.761719 0 L 53.761719 -176.648438 L 58.457031 -178.359375 C 61.710938 -179.542969 66.25 -180.550781 72.066406 -181.378906 C 77.535156 -182.160156 83.453125 -182.8125 89.8125 -183.332031 C 96.222656 -183.855469 101.933594 -184.117188 106.949219 -184.117188 L 138.917969 -184.117188 L 138.917969 -176.980469 L 131.78125 -176.980469 L 131.78125 -211.996094 L 138.917969 -211.996094 L 138.917969 -204.859375 L 99.71875 -204.859375 C 90.773438 -204.859375 79.292969 -204.296875 65.273438 -203.167969 C 51.488281 -202.0625 38.078125 -199.785156 25.039062 -196.339844 L 23.214844 -203.242188 L 30.351562 -203.242188 L 30.351562 0 L 23.214844 0 L 23.214844 -7.136719 Z M 60.894531 -7.136719 "/>
          </g>
        </g>
      </g>
      <g fill="#ffffff" fill-opacity="1">
        <g transform="translate(743.809647, 387.721458)">
          <g>
            <path d="M 119.128906 -225.222656 C 138.277344 -225.222656 155.050781 -222.460938 169.445312 -216.945312 C 184.492188 -211.179688 196.179688 -201.734375 204.507812 -188.605469 C 212.734375 -175.640625 216.847656 -158.570312 216.847656 -137.398438 L 216.847656 2.1875 L 210.945312 3.222656 C 196.324219 5.789062 180.691406 7.964844 164.042969 9.757812 C 147.296875 11.5625 132.324219 12.464844 119.128906 12.464844 C 85.078125 12.464844 58.609375 6.796875 39.71875 -4.539062 C 19.644531 -16.582031 9.609375 -35.746094 9.609375 -62.039062 L 9.609375 -62.800781 C 9.609375 -87.425781 18.984375 -105.964844 37.726562 -118.414062 C 55.542969 -130.246094 80.519531 -136.160156 112.65625 -136.160156 C 121.726562 -136.160156 131.175781 -135.773438 141.003906 -134.996094 C 150.773438 -134.226562 161.429688 -133.070312 172.976562 -131.53125 L 172.03125 -124.457031 L 164.894531 -124.457031 L 164.894531 -136.636719 C 164.894531 -151.019531 160.824219 -161.304688 152.683594 -167.492188 C 143.933594 -174.132812 130.214844 -177.457031 111.515625 -177.457031 C 100.429688 -177.457031 88.320312 -175.8125 75.1875 -172.53125 C 61.847656 -169.195312 49.390625 -165.066406 37.808594 -160.136719 L 25.367188 -154.839844 L 35.972656 -207.871094 L 39.332031 -209.375 C 49.449219 -213.902344 61.867188 -217.675781 76.585938 -220.699219 C 91.269531 -223.714844 105.449219 -225.222656 119.128906 -225.222656 Z M 119.128906 -210.949219 C 106.417969 -210.949219 93.195312 -209.539062 79.457031 -206.71875 C 65.761719 -203.902344 54.328125 -200.445312 45.160156 -196.347656 L 42.246094 -202.859375 L 49.246094 -201.460938 L 42.011719 -165.304688 L 35.015625 -166.703125 L 32.222656 -173.269531 C 44.492188 -178.492188 57.660156 -182.859375 71.726562 -186.375 C 85.996094 -189.945312 99.257812 -191.726562 111.515625 -191.726562 C 133.417969 -191.726562 150.015625 -187.4375 161.3125 -178.855469 C 173.214844 -169.816406 179.167969 -155.742188 179.167969 -136.636719 L 179.167969 -116.304688 L 171.089844 -117.382812 C 159.796875 -118.886719 149.394531 -120.015625 139.878906 -120.769531 C 130.425781 -121.515625 121.351562 -121.886719 112.65625 -121.886719 C 83.390625 -121.886719 61.046875 -116.765625 45.625 -106.523438 C 31.128906 -96.898438 23.882812 -82.324219 23.882812 -62.800781 L 23.882812 -62.039062 C 23.882812 -41.132812 31.609375 -26.046875 47.058594 -16.777344 C 63.691406 -6.796875 87.714844 -1.808594 119.128906 -1.808594 C 131.8125 -1.808594 146.273438 -2.683594 162.515625 -4.429688 C 178.847656 -6.191406 194.171875 -8.324219 208.476562 -10.835938 L 209.710938 -3.804688 L 202.574219 -3.804688 L 202.574219 -137.398438 C 202.574219 -155.804688 199.203125 -170.328125 192.457031 -180.957031 C 185.816406 -191.425781 176.445312 -198.980469 164.339844 -203.617188 C 151.585938 -208.503906 136.515625 -210.949219 119.128906 -210.949219 Z M 63.085938 -62.800781 L 63.085938 -62.039062 C 63.085938 -57.660156 64.070312 -54.015625 66.042969 -51.101562 C 68.058594 -48.125 71.21875 -45.710938 75.523438 -43.851562 C 85.785156 -39.417969 100.828125 -37.203125 120.652344 -37.203125 C 127.027344 -37.203125 134.859375 -37.636719 144.15625 -38.503906 C 153.546875 -39.382812 162.492188 -40.445312 170.992188 -41.695312 L 172.03125 -34.632812 L 164.894531 -34.632812 L 164.894531 -90.582031 L 172.03125 -90.582031 L 170.824219 -83.550781 C 162.152344 -85.035156 153.230469 -86.152344 144.050781 -86.894531 C 134.855469 -87.640625 127.054688 -88.015625 120.652344 -88.015625 C 100.828125 -88.015625 85.785156 -85.796875 75.523438 -81.367188 C 71.234375 -79.515625 68.082031 -77.082031 66.074219 -74.066406 C 64.082031 -71.078125 63.085938 -67.320312 63.085938 -62.800781 Z M 48.8125 -62.800781 C 48.8125 -70.203125 50.605469 -76.597656 54.195312 -81.980469 C 57.769531 -87.339844 62.992188 -91.503906 69.867188 -94.46875 C 81.933594 -99.679688 98.859375 -102.285156 120.652344 -102.285156 C 127.441406 -102.285156 135.625 -101.898438 145.207031 -101.121094 C 154.804688 -100.34375 164.148438 -99.175781 173.238281 -97.617188 L 179.167969 -96.601562 L 179.167969 -28.472656 L 173.070312 -27.574219 C 164.320312 -26.289062 155.121094 -25.195312 145.480469 -24.292969 C 135.746094 -23.386719 127.46875 -22.929688 120.652344 -22.929688 C 98.859375 -22.929688 81.933594 -25.535156 69.867188 -30.746094 C 63.007812 -33.707031 57.796875 -37.824219 54.226562 -43.097656 C 50.617188 -48.429688 48.8125 -54.742188 48.8125 -62.039062 Z M 48.8125 -62.800781 "/>
          </g>
        </g>
      </g>
      <g fill="#d59567" fill-opacity="1">
        <g transform="translate(2.780429, 387.721458)">
          <g>
            <path d="M 173.546875 0 L 122.546875 0 C 95.648438 0 77.0625 -5.644531 66.78125 -16.9375 C 56.507812 -28.226562 51.375 -45.035156 51.375 -67.359375 L 51.375 -176.96875 L 10.65625 -176.96875 L 10.65625 -211.609375 L 51.375 -211.609375 L 51.375 -282.40625 L 89.4375 -282.40625 L 89.4375 -211.609375 L 173.171875 -211.609375 L 173.171875 -176.96875 L 89.4375 -176.96875 L 89.4375 -79.546875 C 89.4375 -62.796875 93.492188 -51.25 101.609375 -44.90625 C 109.734375 -38.5625 121.914062 -35.390625 138.15625 -35.390625 L 173.546875 -35.390625 Z M 173.546875 0 "/>
          </g>
        </g>
      </g>
      <g fill="#d59567" fill-opacity="1">
        <g transform="translate(192.700055, 387.721458)">
          <g>
            <path d="M 227.21875 -102.765625 L 227.21875 -94.390625 L 56.328125 -94.390625 C 59.117188 -75.867188 66.789062 -60.328125 79.34375 -47.765625 C 91.90625 -35.203125 108.972656 -28.921875 130.546875 -28.921875 C 145.515625 -28.921875 158.769531 -31.265625 170.3125 -35.953125 C 181.851562 -40.648438 191.5625 -46.046875 199.4375 -52.140625 L 215.796875 -22.078125 C 205.898438 -15.222656 193.847656 -9.066406 179.640625 -3.609375 C 165.429688 1.835938 148.554688 4.5625 129.015625 4.5625 C 105.929688 4.5625 86.015625 -0.128906 69.265625 -9.515625 C 52.523438 -18.898438 39.585938 -31.960938 30.453125 -48.703125 C 21.316406 -65.453125 16.75 -84.867188 16.75 -106.953125 L 16.75 -107.328125 C 16.75 -128.890625 21 -148.046875 29.5 -164.796875 C 38 -181.546875 50.113281 -194.738281 65.84375 -204.375 C 81.570312 -214.019531 100.222656 -218.84375 121.796875 -218.84375 C 144.117188 -218.84375 163.082031 -214.019531 178.6875 -204.375 C 194.289062 -194.738281 206.28125 -181.226562 214.65625 -163.84375 C 223.03125 -146.46875 227.21875 -126.109375 227.21875 -102.765625 Z M 121.40625 -185.34375 C 103.644531 -185.34375 89.179688 -179.820312 78.015625 -168.78125 C 66.859375 -157.75 59.753906 -143.988281 56.703125 -127.5 L 187.25 -127.5 C 184.96875 -143.476562 178.367188 -157.113281 167.453125 -168.40625 C 156.546875 -179.695312 141.195312 -185.34375 121.40625 -185.34375 Z M 121.40625 -185.34375 "/>
          </g>
        </g>
      </g>
      <g fill="#d59567" fill-opacity="1">
        <g transform="translate(437.045598, 387.721458)">
          <g>
            <path d="M 60.890625 0 L 23.21875 0 L 23.21875 -203.234375 C 36.664062 -206.785156 50.492188 -209.128906 64.703125 -210.265625 C 78.910156 -211.410156 90.582031 -211.984375 99.71875 -211.984375 L 138.921875 -211.984375 L 138.921875 -176.96875 L 106.953125 -176.96875 C 102.128906 -176.96875 96.609375 -176.710938 90.390625 -176.203125 C 84.171875 -175.703125 78.394531 -175.070312 73.0625 -174.3125 C 67.738281 -173.550781 63.679688 -172.660156 60.890625 -171.640625 Z M 60.890625 0 "/>
          </g>
        </g>
      </g>
      <g fill="#d59567" fill-opacity="1">
        <g transform="translate(590.427596, 387.721458)">
          <g>
            <path d="M 60.890625 0 L 23.21875 0 L 23.21875 -203.234375 C 36.664062 -206.785156 50.492188 -209.128906 64.703125 -210.265625 C 78.910156 -211.410156 90.582031 -211.984375 99.71875 -211.984375 L 138.921875 -211.984375 L 138.921875 -176.96875 L 106.953125 -176.96875 C 102.128906 -176.96875 96.609375 -176.710938 90.390625 -176.203125 C 84.171875 -175.703125 78.394531 -175.070312 73.0625 -174.3125 C 67.738281 -173.550781 63.679688 -172.660156 60.890625 -171.640625 Z M 60.890625 0 "/>
          </g>
        </g>
      </g>
      <g fill="#d59567" fill-opacity="1">
        <g transform="translate(743.809647, 387.721458)">
          <g>
            <path d="M 119.125 -218.078125 C 137.394531 -218.078125 153.316406 -215.472656 166.890625 -210.265625 C 180.460938 -205.066406 190.988281 -196.566406 198.46875 -184.765625 C 205.957031 -172.972656 209.703125 -157.179688 209.703125 -137.390625 L 209.703125 -3.8125 C 195.242188 -1.269531 179.765625 0.882812 163.265625 2.65625 C 146.773438 4.4375 132.0625 5.328125 119.125 5.328125 C 86.394531 5.328125 61.148438 0 43.390625 -10.65625 C 25.628906 -21.3125 16.75 -38.4375 16.75 -62.03125 L 16.75 -62.796875 C 16.75 -84.867188 25.054688 -101.421875 41.671875 -112.453125 C 58.296875 -123.492188 81.957031 -129.015625 112.65625 -129.015625 C 121.53125 -129.015625 130.789062 -128.632812 140.4375 -127.875 C 150.082031 -127.113281 160.613281 -125.972656 172.03125 -124.453125 L 172.03125 -136.640625 C 172.03125 -153.378906 167.019531 -165.554688 157 -173.171875 C 146.976562 -180.785156 131.816406 -184.59375 111.515625 -184.59375 C 99.835938 -184.59375 87.148438 -182.878906 73.453125 -179.453125 C 59.753906 -176.023438 46.941406 -171.773438 35.015625 -166.703125 L 42.25 -202.859375 C 51.882812 -207.171875 63.804688 -210.785156 78.015625 -213.703125 C 92.222656 -216.617188 105.925781 -218.078125 119.125 -218.078125 Z M 55.953125 -62.796875 L 55.953125 -62.03125 C 55.953125 -50.363281 61.53125 -42.117188 72.6875 -37.296875 C 83.851562 -32.472656 99.835938 -30.0625 120.640625 -30.0625 C 127.242188 -30.0625 135.300781 -30.503906 144.8125 -31.390625 C 154.332031 -32.285156 163.40625 -33.367188 172.03125 -34.640625 L 172.03125 -90.578125 C 163.144531 -92.097656 154.007812 -93.238281 144.625 -94 C 135.238281 -94.769531 127.242188 -95.15625 120.640625 -95.15625 C 99.835938 -95.15625 83.851562 -92.742188 72.6875 -87.921875 C 61.53125 -83.097656 55.953125 -74.722656 55.953125 -62.796875 Z M 55.953125 -62.796875 "/>
          </g>
        </g>
      </g>
    </g>
  </g>
  <g clip-path="url(#20b1a7b6cb)">
    <path fill="#d59567" d="M 667.371094 184.828125 C 672.183594 184.828125 676.96875 184.828125 681.785156 184.828125 C 684.292969 187.078125 687.453125 186.453125 690.386719 187.050781 C 699.21875 188.789062 708.507812 187.847656 717.023438 190.984375 C 730.757812 196.054688 744.6875 200.527344 758.988281 203.519531 C 816.421875 215.546875 853.429688 249.570312 870.4375 305.679688 C 878.242188 331.496094 886.417969 357.199219 896.558594 382.246094 C 910.804688 417.46875 927.328125 451.460938 948.835938 482.921875 C 972.425781 517.402344 992.566406 553.992188 1013.503906 590.09375 C 1019.714844 600.78125 1018.0625 611.464844 1018.460938 622.324219 C 1018.777344 631.101562 1013.21875 638.507812 1013.675781 648.082031 C 1014.105469 657.316406 1010.882812 667.402344 1008.976562 677.035156 C 1006.582031 689.261719 1004.589844 701.597656 1002.480469 713.851562 C 1000.203125 727.046875 997.921875 740.324219 996.214844 753.660156 C 994.902344 763.890625 991.996094 773.722656 989.003906 783.609375 C 985.671875 794.609375 982.652344 805.921875 977.410156 815.925781 C 968.890625 832.109375 958.523438 847.382812 947.15625 861.773438 C 942.226562 868.015625 935.617188 873 928.296875 876.761719 C 920.175781 880.953125 911.289062 882.773438 902.800781 885.824219 C 888.640625 890.894531 874.167969 894.488281 859.382812 896.964844 C 856.136719 897.507812 852.773438 898.019531 849.382812 895.570312 C 857.472656 890.582031 864.9375 885.765625 871.089844 879.242188 C 877.816406 872.089844 881.460938 864.140625 879.4375 853.824219 C 877.359375 843.28125 876.191406 832.566406 874.878906 821.878906 C 870.835938 788.910156 863.3125 756.796875 849.867188 726.363281 C 830.410156 682.191406 805.679688 640.730469 783.289062 598.074219 C 771.808594 576.160156 760.667969 553.90625 744.972656 534.785156 C 727.9375 514.039062 710.273438 493.777344 692.269531 473.859375 C 677.285156 457.277344 658.710938 445.195312 636.230469 440.605469 C 611.703125 435.589844 586.976562 432.371094 561.992188 434.367188 C 537.859375 436.273438 515.839844 443.339844 500.941406 464.457031 C 500.054688 465.710938 499.257812 467.535156 496.410156 466.707031 C 499.542969 462.148438 496.210938 457.160156 497.550781 452.515625 C 499.886719 444.480469 500.027344 436.074219 501.082031 427.953125 C 502.761719 414.960938 502.761719 401.710938 505.355469 388.800781 C 508.800781 371.589844 508.234375 353.808594 513.046875 336.765625 C 515.980469 326.367188 516.921875 315.453125 520.285156 305.136719 C 522.164062 299.378906 523.1875 292.96875 526.4375 288.097656 C 535.980469 273.761719 544.214844 258.460938 556.777344 246.265625 C 566.664062 236.632812 575.066406 225.378906 588.199219 219.449219 C 590.878906 218.222656 593.355469 215.945312 595.207031 213.609375 C 606.089844 200.015625 620.992188 195.171875 637.515625 193.632812 C 639.621094 193.433594 641.671875 193.433594 643.753906 192.4375 C 649.878906 189.527344 655.546875 184.941406 663.152344 186.9375 C 664.777344 187.390625 666.371094 186.394531 667.371094 184.828125 Z M 772.976562 444.308594 C 770.867188 446.078125 768.078125 448.070312 765.796875 450.550781 C 765.058594 451.347656 767.078125 453.144531 767.878906 452.429688 C 770.613281 450.066406 774.886719 449.554688 776.367188 445.90625 C 776.851562 444.765625 775.054688 444.28125 772.976562 444.308594 Z M 813.203125 391.933594 C 815.738281 391.792969 818.617188 391.363281 818.5 388.371094 C 818.359375 384.8125 814.484375 384.355469 812.121094 384.15625 C 808.957031 383.925781 809.414062 387.605469 809.15625 389.625 C 808.730469 392.703125 811.605469 391.566406 813.203125 391.933594 Z M 900.492188 688.519531 C 899.152344 684.730469 897.386719 682.078125 893.882812 681.167969 C 892.683594 680.855469 892.171875 682.308594 892.457031 683.078125 C 893.597656 686.296875 895.164062 689.175781 900.492188 688.519531 Z M 840.011719 554.875 C 839.8125 553.050781 838.8125 551.652344 837.046875 551.539062 C 835.421875 551.425781 834.710938 552.90625 834.65625 554.359375 C 834.597656 556.183594 835.253906 557.582031 837.445312 557.523438 C 839.15625 557.496094 839.980469 556.582031 840.011719 554.875 Z M 754.628906 520.734375 C 753.175781 520.792969 752.40625 521.5625 752.605469 522.957031 C 752.835938 524.410156 753.546875 525.722656 755.257812 525.695312 C 756.539062 525.695312 757.535156 524.839844 757.363281 523.472656 C 757.195312 521.988281 756.253906 520.964844 754.628906 520.734375 Z M 845.679688 305.679688 C 845.738281 303.824219 844.882812 303.171875 843.484375 303.257812 C 842.203125 303.3125 841.035156 303.941406 840.863281 305.222656 C 840.664062 306.761719 842.03125 307.074219 843.230469 307.1875 C 844.570312 307.300781 845.566406 306.847656 845.679688 305.679688 Z M 744.859375 473.089844 C 743.492188 473.148438 742.492188 473.632812 742.75 475.199219 C 742.921875 476.253906 743.746094 476.796875 744.800781 476.796875 C 746.140625 476.796875 747.195312 475.96875 747.335938 474.800781 C 747.535156 473.148438 745.96875 473.261719 744.859375 473.089844 Z M 744.859375 473.089844 " fill-opacity="1" fill-rule="nonzero"/>
  </g>
  <path fill="#d59567" d="M 491.625 559.433594 C 495.097656 544.246094 493.105469 528.828125 493.417969 513.527344 C 493.476562 510.535156 493.789062 507.484375 495.527344 504.691406 C 501.625 494.917969 507.632812 485.117188 514.328125 475.710938 C 524.554688 461.351562 539 455.222656 555.808594 452.746094 C 583.386719 448.640625 610.363281 452.886719 636.945312 459.015625 C 657.484375 463.773438 673.351562 477.222656 686.429688 493.292969 C 698.566406 508.199219 710.957031 522.789062 724.0625 536.863281 C 738.21875 552.082031 748.761719 570.003906 758.046875 588.414062 C 780.070312 632.125 805.539062 673.957031 826.648438 718.15625 C 843.285156 752.976562 853.3125 789.28125 857.730469 827.378906 C 858.640625 835.214844 860.09375 842.996094 861.546875 850.746094 C 863.058594 858.953125 861.433594 865.476562 854.398438 871.007812 C 841.863281 880.835938 827.476562 886.566406 812.773438 891.78125 C 810.636719 892.550781 807.960938 892.40625 805.679688 891.921875 C 785.453125 887.621094 764.914062 885.425781 744.515625 882.347656 C 736.796875 881.179688 729.703125 877.304688 721.8125 877.390625 C 705.34375 877.53125 689.164062 875.109375 673.097656 871.945312 C 666.914062 870.722656 660.703125 868.839844 654.921875 866.304688 C 644.378906 861.660156 633.070312 859.351562 622.585938 854.363281 C 614.695312 850.601562 608.085938 844.988281 599.511719 840.914062 C 604.894531 838.066406 609.765625 835.644531 614.496094 832.964844 C 625.433594 826.78125 635.777344 819.886719 643.011719 809.226562 C 644.292969 807.347656 645.433594 805.4375 647.882812 808.058594 C 649.28125 809.539062 651.160156 810.710938 652.355469 807.886719 C 653.183594 805.949219 652.867188 803.640625 650.417969 803.414062 C 646.542969 803.042969 647.484375 801.617188 648.824219 799.339844 C 660.675781 779.308594 663.75 757.109375 664.351562 734.398438 C 664.636719 723.855469 665.886719 713.140625 663.75 702.765625 C 654.605469 658.65625 628.054688 628.761719 588.058594 609.1875 C 567.601562 599.183594 546.75 598.046875 525.039062 601.238281 C 516.039062 602.574219 508.519531 607.25 501.140625 613.203125 C 496.46875 599.554688 494.757812 585.792969 491.710938 572.371094 C 491.625 568.097656 491.625 563.765625 491.625 559.433594 Z M 595.664062 598.84375 C 593.070312 599.269531 592.5 601.121094 592.585938 603.058594 C 592.730469 605.597656 594.011719 607.675781 596.660156 608.160156 C 598.996094 608.617188 599.710938 606.90625 599.195312 605.082031 C 598.542969 602.777344 598.683594 599.785156 595.664062 598.84375 Z M 576.347656 560.828125 C 575.210938 558.976562 573.957031 556.984375 571.25 556.839844 C 570.023438 556.785156 569.453125 557.667969 569.882812 558.691406 C 570.765625 560.859375 571.648438 563.195312 574.554688 563.335938 C 576.148438 563.421875 576.492188 562.398438 576.347656 560.828125 Z M 688.765625 651.304688 C 689.988281 650.992188 690.558594 649.878906 690.273438 648.285156 C 690.105469 647.371094 689.847656 646.402344 688.652344 646.429688 C 686.882812 646.460938 686.285156 647.628906 686.257812 649.167969 C 686.285156 650.476562 686.742188 651.476562 688.765625 651.304688 Z M 688.765625 651.304688 " fill-opacity="1" fill-rule="nonzero"/>
  <path fill="#d59567" d="M 647.285156 722.886719 C 646.460938 747.136719 645.292969 771.242188 632.5 793.042969 C 621.21875 812.277344 602.929688 821.339844 582.757812 827.007812 C 575.609375 829.003906 571.589844 820.996094 568.257812 816.351562 C 557.945312 801.902344 547.859375 787.257812 538.144531 772.410156 C 531.480469 762.265625 525.183594 751.609375 519.65625 740.808594 C 515.867188 733.398438 514.1875 724.453125 513.246094 715.648438 C 512.335938 707.183594 511.082031 698.492188 510.910156 690.230469 C 510.683594 678.316406 505.355469 667.320312 506.664062 655.378906 C 507.035156 652.128906 506.980469 648.3125 505.554688 645.546875 C 502.421875 639.421875 505.042969 635.375 508.6875 630.871094 C 515.46875 622.496094 524.386719 618.21875 534.753906 617.335938 C 550.738281 615.96875 565.835938 618.277344 580.820312 625.289062 C 606.089844 637.085938 624.378906 655.207031 637.628906 679.316406 C 645.234375 692.9375 647.65625 707.527344 647.285156 722.886719 Z M 638.167969 772.980469 C 638.113281 771.355469 637.34375 770.300781 636.089844 770.558594 C 634.007812 770.984375 632.042969 772.070312 631.902344 774.492188 C 631.816406 776.257812 633.296875 776.855469 634.808594 776.570312 C 636.773438 776.171875 637.941406 774.804688 638.167969 772.980469 Z M 529.714844 726.648438 C 528.628906 724.765625 528.089844 722.316406 525.324219 722.855469 C 524.785156 722.96875 523.902344 723.910156 523.988281 724.222656 C 524.839844 726.988281 527.234375 726.875 529.714844 726.648438 Z M 529.714844 726.648438 " fill-opacity="1" fill-rule="nonzero"/>
  <path fill="#d59567" d="M 899.4375 249.484375 C 911.660156 251.480469 919.492188 260.425781 928.066406 268.007812 C 937.582031 276.414062 944.589844 287.296875 953.878906 295.761719 C 967.382812 308.101562 978.351562 322.492188 989.175781 336.910156 C 1000.34375 351.839844 1010.058594 367.96875 1014.332031 386.519531 C 1016.210938 394.671875 1020.796875 401.765625 1022.195312 410.03125 C 1023.988281 420.660156 1026.15625 431.316406 1027.949219 441.832031 C 1029.289062 449.722656 1028.890625 458.929688 1028.261719 467.648438 C 1027.550781 477.308594 1027.039062 487.28125 1027.351562 497.113281 C 1027.40625 498.566406 1027.605469 500.277344 1025.953125 500.789062 C 1024.246094 501.300781 1023.703125 499.476562 1022.933594 498.394531 C 1014.703125 486.542969 1007.292969 474.144531 1001.683594 460.894531 C 972.054688 390.796875 936.015625 323.828125 901.203125 256.296875 C 900.207031 254.386719 899.351562 252.390625 898.441406 250.453125 C 898.78125 250.113281 899.125 249.796875 899.4375 249.484375 Z M 899.4375 249.484375 " fill-opacity="1" fill-rule="nonzero"/>
  <path fill="#d59567" d="M 816.761719 203.464844 C 825.425781 207.59375 832.859375 213.980469 841.804688 217.625 C 850.351562 221.132812 857.273438 227.769531 866.132812 230.648438 C 869.921875 231.875 870.722656 235.351562 872.144531 238.199219 C 910.035156 312.773438 950.945312 385.894531 983.421875 463.144531 C 992.878906 485.628906 1006.15625 505.890625 1020.570312 525.4375 C 1023.761719 529.769531 1025.5 533.503906 1022.136719 538.917969 C 1018.519531 544.757812 1021.882812 551.453125 1021.625 557.78125 C 1021.566406 559.632812 1022.082031 562.113281 1020.058594 562.96875 C 1017.351562 564.105469 1017.125 561.085938 1016.355469 559.691406 C 994.589844 520.421875 969.089844 483.433594 945.929688 445.050781 C 931.972656 421.882812 921.800781 396.808594 911.660156 371.617188 C 900.378906 343.550781 892.429688 314.484375 882.058594 286.214844 C 870.605469 255.011719 851.320312 230.050781 823.914062 211.328125 C 821.066406 209.390625 818.246094 207.394531 815.394531 205.429688 C 815.851562 204.746094 816.308594 204.121094 816.761719 203.464844 Z M 816.761719 203.464844 " fill-opacity="1" fill-rule="nonzero"/>
  <path fill="#d59567" d="M 898.46875 250.425781 C 898.382812 249.882812 898.269531 249.34375 898.183594 248.828125 C 898.609375 249.058594 899.039062 249.285156 899.4375 249.511719 C 899.125 249.796875 898.78125 250.113281 898.46875 250.425781 Z M 898.46875 250.425781 " fill-opacity="1" fill-rule="nonzero"/>
</svg>
